<svg width="16" height="16" viewBox="0 0 16 16" fill="none" xmlns="http://www.w3.org/2000/svg">
<g clip-path="url(#clip0_346_7760)">
<path fill-rule="evenodd" clip-rule="evenodd" d="M11.7606 8.68584C11.7424 6.78898 13.3104 5.87479 13.3812 5.83147C12.5007 4.54068 11.127 4.36398 10.6378 4.34333C9.47003 4.22607 8.35875 5.03178 7.76586 5.03178C7.17458 5.03178 6.25905 4.36119 5.2913 4.38025C4.01704 4.39797 2.84325 5.12 2.18719 6.25978C0.865081 8.55539 1.84924 11.9552 3.13856 13.8175C3.76783 14.7269 4.51997 15.7528 5.50624 15.7157C6.45762 15.6784 6.81582 15.1022 7.96322 15.1022C9.11155 15.1022 9.43405 15.7157 10.4403 15.6968C11.4612 15.6784 12.1104 14.768 12.7358 13.8549C13.4587 12.7972 13.7564 11.7733 13.7738 11.7201C13.7518 11.7121 11.7812 10.9556 11.7606 8.68584Z" fill="black"/>
<path fill-rule="evenodd" clip-rule="evenodd" d="M9.87352 3.11285C10.3976 2.47758 10.7493 1.59604 10.653 0.717041C9.89857 0.747012 8.98385 1.22062 8.44347 1.85391C7.95772 2.41588 7.53261 3.31327 7.64788 4.17387C8.48945 4.2393 9.34913 3.7469 9.87352 3.11285Z" fill="black"/>
</g>
<defs>
<clipPath id="clip0_346_7760">
<rect width="15" height="15" fill="white" transform="translate(0.166679 0.717041)"/>
</clipPath>
</defs>
</svg>
