<svg width="27" height="26" viewBox="0 0 27 26" fill="none" xmlns="http://www.w3.org/2000/svg">
<path d="M4.92853 21.0356V4.96422C4.92853 4.25381 5.21073 3.57251 5.71306 3.07018C6.21539 2.56785 6.8967 2.28564 7.6071 2.28564H22.0714V23.7142H7.6071C6.8967 23.7142 6.21539 23.432 5.71306 22.9297C5.21073 22.4274 4.92853 21.746 4.92853 21.0356ZM4.92853 21.0356C4.92853 20.3252 5.21073 19.6439 5.71306 19.1416C6.21539 18.6393 6.8967 18.3571 7.6071 18.3571H22.0714" stroke="#868C98" stroke-width="1.71429" stroke-linecap="round" stroke-linejoin="round"/>
<path d="M11.3572 10.857C12.5406 10.857 13.5 9.89761 13.5 8.71415C13.5 7.53068 12.5406 6.57129 11.3572 6.57129C10.1737 6.57129 9.21429 7.53068 9.21429 8.71415C9.21429 9.89761 10.1737 10.857 11.3572 10.857Z" stroke="#868C98" stroke-width="1.71429" stroke-linecap="round" stroke-linejoin="round"/>
<path d="M22.0714 14.8213L19.8214 12.5713C18.9642 11.7142 17.6785 11.7142 16.8214 12.5713L11.0356 18.357" stroke="#868C98" stroke-width="1.27529" stroke-linecap="round" stroke-linejoin="round"/>
</svg>
