<svg width="22" height="20" viewBox="0 0 22 20" fill="none" xmlns="http://www.w3.org/2000/svg">
<path d="M18 5.99585V3.99585H16V1.99585H18V-0.00415039H20V1.99585H22V3.99585H20V5.99585H18ZM10 16.4958C11.25 16.4958 12.3125 16.0583 13.1875 15.1833C14.0625 14.3083 14.5 13.2458 14.5 11.9958C14.5 10.7458 14.0625 9.68335 13.1875 8.80835C12.3125 7.93335 11.25 7.49585 10 7.49585C8.75 7.49585 7.6875 7.93335 6.8125 8.80835C5.9375 9.68335 5.5 10.7458 5.5 11.9958C5.5 13.2458 5.9375 14.3083 6.8125 15.1833C7.6875 16.0583 8.75 16.4958 10 16.4958ZM10 14.4958C9.3 14.4958 8.70833 14.2542 8.225 13.7709C7.74167 13.2875 7.5 12.6958 7.5 11.9958C7.5 11.2958 7.74167 10.7042 8.225 10.2208C8.70833 9.73752 9.3 9.49585 10 9.49585C10.7 9.49585 11.2917 9.73752 11.775 10.2208C12.2583 10.7042 12.5 11.2958 12.5 11.9958C12.5 12.6958 12.2583 13.2875 11.775 13.7709C11.2917 14.2542 10.7 14.4958 10 14.4958ZM2 19.9958C1.45 19.9958 0.979167 19.8 0.5875 19.4083C0.195833 19.0167 0 18.5459 0 17.9958V5.99585C0 5.44585 0.195833 4.97502 0.5875 4.58335C0.979167 4.19168 1.45 3.99585 2 3.99585H5.15L7 1.99585H14V5.99585H16V7.99585H20V17.9958C20 18.5459 19.8042 19.0167 19.4125 19.4083C19.0208 19.8 18.55 19.9958 18 19.9958H2Z" fill="white"/>
</svg>
