<svg width="15" height="16" viewBox="0 0 15 16" fill="none" xmlns="http://www.w3.org/2000/svg">
<path d="M10.644 14.4498H4.35603C2.67603 14.4498 1.60803 13.4478 1.51203 11.7738L1.20003 6.8238C1.15203 6.0738 1.41003 5.3538 1.92603 4.8078C2.43603 4.2618 3.15603 3.9498 3.90003 3.9498C4.09203 3.9498 4.27803 3.8358 4.36803 3.6558L4.80003 2.7978C5.15403 2.0958 6.04203 1.5498 6.81603 1.5498H8.19003C8.96403 1.5498 9.84603 2.0958 10.2 2.7918L10.632 3.6678C10.722 3.8358 10.902 3.9498 11.1 3.9498C11.844 3.9498 12.564 4.2618 13.074 4.8078C13.59 5.3598 13.848 6.0738 13.8 6.8238L13.488 11.7798C13.38 13.4778 12.342 14.4498 10.644 14.4498ZM6.81603 2.4498C6.37203 2.4498 5.80803 2.7978 5.60403 3.1998L5.17203 4.0638C4.92003 4.5498 4.43403 4.8498 3.90003 4.8498C3.39603 4.8498 2.92803 5.0538 2.58003 5.4198C2.23803 5.7858 2.06403 6.2658 2.10003 6.7638L2.41203 11.7198C2.48403 12.9318 3.13803 13.5498 4.35603 13.5498H10.644C11.856 13.5498 12.51 12.9318 12.588 11.7198L12.9 6.7638C12.93 6.2658 12.762 5.7858 12.42 5.4198C12.072 5.0538 11.604 4.8498 11.1 4.8498C10.566 4.8498 10.08 4.5498 9.82803 4.0758L9.39003 3.1998C9.19203 2.8038 8.62803 2.4558 8.18403 2.4558H6.81603V2.4498Z" fill="white"/>
<path d="M8.40002 6.04941H6.60002C6.35402 6.04941 6.15002 5.84541 6.15002 5.59941C6.15002 5.35341 6.35402 5.14941 6.60002 5.14941H8.40002C8.64602 5.14941 8.85002 5.35341 8.85002 5.59941C8.85002 5.84541 8.64602 6.04941 8.40002 6.04941Z" fill="white"/>
<path d="M7.50003 12.05C6.17403 12.05 5.10003 10.976 5.10003 9.65C5.10003 8.324 6.17403 7.25 7.50003 7.25C8.82602 7.25 9.90002 8.324 9.90002 9.65C9.90002 10.976 8.82602 12.05 7.50003 12.05ZM7.50003 8.15C6.67203 8.15 6.00003 8.822 6.00003 9.65C6.00003 10.478 6.67203 11.15 7.50003 11.15C8.32802 11.15 9.00002 10.478 9.00002 9.65C9.00002 8.822 8.32802 8.15 7.50003 8.15Z" fill="white"/>
</svg>
