<svg width="16" height="16" viewBox="0 0 16 16" fill="none" xmlns="http://www.w3.org/2000/svg">
<g clip-path="url(#clip0_346_11054)">
<path d="M15.492 8.3574C15.492 7.74286 15.441 7.2944 15.3306 6.82935H8.14936V9.60309H12.3646C12.2796 10.2924 11.8207 11.3305 10.8009 12.028L10.7866 12.1209L13.0571 13.8398L13.2144 13.8551C14.6592 12.5513 15.492 10.6329 15.492 8.3574Z" fill="#4285F4"/>
<path d="M8.1494 15.6655C10.2145 15.6655 11.9482 15.0011 13.2145 13.8551L10.8009 12.028C10.155 12.4682 9.28817 12.7755 8.1494 12.7755C6.12678 12.7755 4.4101 11.4717 3.79815 9.66956L3.70845 9.677L1.34748 11.4625L1.31661 11.5464C2.57437 13.988 5.15791 15.6655 8.1494 15.6655Z" fill="#34A853"/>
<path d="M3.79813 9.66954C3.63667 9.20448 3.54322 8.70616 3.54322 8.19129C3.54322 7.67637 3.63667 7.17811 3.78964 6.71305L3.78536 6.614L1.39481 4.7998L1.31659 4.83616C0.798209 5.84935 0.500759 6.98711 0.500759 8.19129C0.500759 9.39547 0.798209 10.5332 1.31659 11.5464L3.79813 9.66954Z" fill="#FBBC05"/>
<path d="M8.1494 3.60706C9.58562 3.60706 10.5544 4.2133 11.1068 4.71992L13.2655 2.66034C11.9397 1.45616 10.2145 0.717041 8.1494 0.717041C5.15791 0.717041 2.57437 2.39458 1.31661 4.83614L3.78965 6.71303C4.4101 4.91091 6.12678 3.60706 8.1494 3.60706Z" fill="#EB4335"/>
</g>
<defs>
<clipPath id="clip0_346_11054">
<rect width="15" height="15" fill="white" transform="translate(0.5 0.717041)"/>
</clipPath>
</defs>
</svg>
