<svg width="16" height="16" viewBox="0 0 16 16" fill="none" xmlns="http://www.w3.org/2000/svg">
<g clip-path="url(#clip0_2251_1028)">
<path d="M8.82105 6.24335C8.82105 6.57218 8.69042 6.88755 8.4579 7.12007C8.22538 7.35259 7.91001 7.48322 7.58118 7.48322H3.86157L1.38184 9.96296V3.14368C1.38184 2.46175 1.93978 1.90381 2.6217 1.90381H7.58118C7.91001 1.90381 8.22538 2.03444 8.4579 2.26696C8.69042 2.49948 8.82105 2.81484 8.82105 3.14368V6.24335Z" stroke="#868C98" stroke-width="1.48784" stroke-linecap="round" stroke-linejoin="round"/>
<path d="M11.3008 6.24316H12.5407C12.8695 6.24316 13.1849 6.37379 13.4174 6.60631C13.6499 6.83883 13.7805 7.1542 13.7805 7.48303V14.3023L11.3008 11.8226H7.58118C7.25234 11.8226 6.93698 11.6919 6.70446 11.4594C6.47194 11.2269 6.34131 10.9115 6.34131 10.5827V9.96277" stroke="#868C98" stroke-width="1.48784" stroke-linecap="round" stroke-linejoin="round"/>
</g>
<defs>
<clipPath id="clip0_2251_1028">
<rect width="14.8784" height="14.8784" fill="white" transform="translate(0.141846 0.664062)"/>
</clipPath>
</defs>
</svg>
