<svg width="27" height="27" viewBox="0 0 27 27" fill="none" xmlns="http://www.w3.org/2000/svg">
<path d="M15.6555 10.1237C15.6555 10.6934 15.4292 11.2398 15.0263 11.6426C14.6235 12.0455 14.0771 12.2718 13.5074 12.2718H7.06298L2.76672 16.568V4.75335C2.76672 3.57188 3.73338 2.60522 4.91485 2.60522H13.5074C14.0771 2.60522 14.6235 2.83154 15.0263 3.2344C15.4292 3.63725 15.6555 4.18363 15.6555 4.75335V10.1237Z" stroke="white" stroke-width="2.28727" stroke-linecap="round" stroke-linejoin="round"/>
<path d="M19.9518 10.123H22.0999C22.6696 10.123 23.216 10.3494 23.6188 10.7522C24.0217 11.1551 24.248 11.7015 24.248 12.2712V24.0859L19.9518 19.7896H13.5074C12.9377 19.7896 12.3913 19.5633 11.9884 19.1604C11.5856 18.7576 11.3593 18.2112 11.3593 17.6415V16.5674" stroke="white" stroke-width="2.28727" stroke-linecap="round" stroke-linejoin="round"/>
</svg>
