<svg xmlns="http://www.w3.org/2000/svg" width="28" height="28" viewBox="0 0 28 28" fill="none">
  <path d="M23.8 8.4C24.9139 8.4 25.9822 7.9575 26.7698 7.16985C27.5575 6.3822 28 5.31391 28 4.2C28 3.08609 27.5575 2.0178 26.7698 1.23015C25.9822 0.442499 24.9139 0 23.8 0C22.6861 0 21.6178 0.442499 20.8302 1.23015C20.0425 2.0178 19.6 3.08609 19.6 4.2C19.6 5.31391 20.0425 6.3822 20.8302 7.16985C21.6178 7.9575 22.6861 8.4 23.8 8.4ZM25.676 15.008H21.042C19.74 15.008 18.578 15.736 17.99 16.884L16.87 19.096C16.604 19.628 16.072 19.95 15.484 19.95H11.13C10.724 19.95 10.122 19.866 9.744 19.082L8.638 16.884C8.35581 16.316 7.92056 15.838 7.38132 15.5041C6.84207 15.1702 6.22027 14.9935 5.586 14.994H0.924C0.42 15.008 0 15.428 0 15.932V20.258C0 25.116 2.898 28 7.742 28H18.886C23.45 28 26.264 25.494 26.6 21.056V15.932C26.6 15.428 26.18 15.008 25.676 15.008Z" fill="#B7B7B7"/>
  <path opacity="0.4" d="M23.8 10.5C20.328 10.5 17.5 7.67199 17.5 4.19999C17.5 3.19199 17.766 2.25399 18.186 1.39999H7.728C2.898 1.39999 0 4.28399 0 9.12799V20.258C0 25.116 2.898 28 7.728 28H18.858C23.702 28 26.586 25.116 26.586 20.272V9.81399C25.746 10.234 24.808 10.5 23.8 10.5Z" fill="#B7B7B7"/>
</svg>