<svg width="24" height="23" viewBox="0 0 24 23" fill="none" xmlns="http://www.w3.org/2000/svg">
<path d="M2.47327 6.95072L6.61499 2.80899C6.78973 2.63321 6.99753 2.49375 7.22642 2.39865C7.45531 2.30355 7.70075 2.25469 7.94861 2.25488H15.7813C16.0291 2.25469 16.2746 2.30355 16.5034 2.39865C16.7323 2.49375 16.9401 2.63321 17.1149 2.80899L21.2566 6.95072" stroke="#525866" stroke-width="1.5" stroke-linecap="round" stroke-linejoin="round"/>
<path d="M4.35156 11.6465V19.1598C4.35156 19.658 4.54946 20.1357 4.90171 20.488C5.25397 20.8403 5.73173 21.0382 6.2299 21.0382H17.4999C17.9981 21.0382 18.4758 20.8403 18.8281 20.488C19.1803 20.1357 19.3782 19.658 19.3782 19.1598V11.6465" stroke="#525866" stroke-width="1.5" stroke-linecap="round" stroke-linejoin="round"/>
<path d="M14.6825 21.0378V17.2812C14.6825 16.783 14.4846 16.3052 14.1323 15.953C13.7801 15.6007 13.3023 15.4028 12.8042 15.4028H10.9258C10.4277 15.4028 9.94989 15.6007 9.59764 15.953C9.24538 16.3052 9.04749 16.783 9.04749 17.2812V21.0378" stroke="#525866" stroke-width="1.5" stroke-linecap="round" stroke-linejoin="round"/>
<path d="M2.47327 6.95068H21.2566" stroke="#525866" stroke-width="1.5" stroke-linecap="round" stroke-linejoin="round"/>
<path d="M21.2566 6.95068V9.76818C21.2566 10.2663 21.0587 10.7441 20.7064 11.0964C20.3542 11.4486 19.8764 11.6465 19.3783 11.6465C18.8295 11.6163 18.3055 11.4087 17.885 11.0548C17.7729 10.9739 17.6382 10.9303 17.4999 10.9303C17.3617 10.9303 17.2269 10.9739 17.1149 11.0548C16.6944 11.4087 16.1703 11.6163 15.6216 11.6465C15.0729 11.6163 14.5488 11.4087 14.1283 11.0548C14.0163 10.9739 13.8815 10.9303 13.7433 10.9303C13.605 10.9303 13.4703 10.9739 13.3582 11.0548C12.9377 11.4087 12.4137 11.6163 11.8649 11.6465C11.3162 11.6163 10.7922 11.4087 10.3717 11.0548C10.2596 10.9739 10.1249 10.9303 9.9866 10.9303C9.84834 10.9303 9.7136 10.9739 9.60154 11.0548C9.18105 11.4087 8.65699 11.6163 8.10827 11.6465C7.55954 11.6163 7.03548 11.4087 6.61499 11.0548C6.50293 10.9739 6.36819 10.9303 6.22993 10.9303C6.09168 10.9303 5.95694 10.9739 5.84488 11.0548C5.42438 11.4087 4.90032 11.6163 4.3516 11.6465C3.85344 11.6465 3.37567 11.4486 3.02342 11.0964C2.67116 10.7441 2.47327 10.2663 2.47327 9.76818V6.95068" stroke="#525866" stroke-width="1.5" stroke-linecap="round" stroke-linejoin="round"/>
</svg>
