<svg width="24" height="23" viewBox="0 0 24 23" fill="none" xmlns="http://www.w3.org/2000/svg">
<path d="M2.47803 6.89017L6.61975 2.74844C6.79449 2.57266 7.00229 2.4332 7.23118 2.3381C7.46007 2.243 7.70551 2.19414 7.95337 2.19434H15.786C16.0339 2.19414 16.2793 2.243 16.5082 2.3381C16.7371 2.4332 16.9449 2.57266 17.1196 2.74844L21.2614 6.89017" stroke="#EF6924" stroke-width="1.5" stroke-linecap="round" stroke-linejoin="round"/>
<path d="M4.35635 11.5859V19.0993C4.35635 19.5974 4.55425 20.0752 4.9065 20.4275C5.25876 20.7797 5.73652 20.9776 6.23469 20.9776H17.5047C18.0029 20.9776 18.4806 20.7797 18.8329 20.4275C19.1851 20.0752 19.383 19.5974 19.383 19.0993V11.5859" stroke="#EF6924" stroke-width="1.5" stroke-linecap="round" stroke-linejoin="round"/>
<path d="M14.6872 20.9778V17.2211C14.6872 16.7229 14.4893 16.2452 14.1371 15.8929C13.7848 15.5407 13.307 15.3428 12.8089 15.3428H10.9305C10.4324 15.3428 9.95462 15.5407 9.60237 15.8929C9.25011 16.2452 9.05222 16.7229 9.05222 17.2211V20.9778" stroke="#EF6924" stroke-width="1.5" stroke-linecap="round" stroke-linejoin="round"/>
<path d="M2.47803 6.89062H21.2614" stroke="#EF6924" stroke-width="1.5" stroke-linecap="round" stroke-linejoin="round"/>
<path d="M21.2614 6.89062V9.70813C21.2614 10.2063 21.0635 10.6841 20.7112 11.0363C20.359 11.3886 19.8812 11.5865 19.383 11.5865C18.8343 11.5563 18.3102 11.3486 17.8898 10.9948C17.7777 10.9138 17.643 10.8702 17.5047 10.8702C17.3664 10.8702 17.2317 10.9138 17.1196 10.9948C16.6991 11.3486 16.1751 11.5563 15.6264 11.5865C15.0776 11.5563 14.5536 11.3486 14.1331 10.9948C14.021 10.9138 13.8863 10.8702 13.748 10.8702C13.6098 10.8702 13.475 10.9138 13.363 10.9948C12.9425 11.3486 12.4184 11.5563 11.8697 11.5865C11.321 11.5563 10.7969 11.3486 10.3764 10.9948C10.2644 10.9138 10.1296 10.8702 9.99136 10.8702C9.8531 10.8702 9.71836 10.9138 9.6063 10.9948C9.18581 11.3486 8.66175 11.5563 8.11303 11.5865C7.56431 11.5563 7.04025 11.3486 6.61975 10.9948C6.50769 10.9138 6.37295 10.8702 6.23469 10.8702C6.09644 10.8702 5.9617 10.9138 5.84964 10.9948C5.42914 11.3486 4.90508 11.5563 4.35636 11.5865C3.8582 11.5865 3.38043 11.3886 3.02818 11.0363C2.67592 10.6841 2.47803 10.2063 2.47803 9.70813V6.89062" stroke="#EF6924" stroke-width="1.5" stroke-linecap="round" stroke-linejoin="round"/>
</svg>
