<svg width="24" height="23" viewBox="0 0 24 23" fill="none" xmlns="http://www.w3.org/2000/svg">
<path d="M14.8174 11.5703V17.2053" stroke="#525866" stroke-width="1.5" stroke-linecap="round" stroke-linejoin="round"/>
<path d="M12.0001 14.3887H17.6351" stroke="#525866" stroke-width="1.5" stroke-linecap="round" stroke-linejoin="round"/>
<path d="M19.5132 7.81445H10.1215C9.08415 7.81445 8.24319 8.65541 8.24319 9.69279V19.0845C8.24319 20.1218 9.08415 20.9628 10.1215 20.9628H19.5132C20.5506 20.9628 21.3915 20.1218 21.3915 19.0845V9.69279C21.3915 8.65541 20.5506 7.81445 19.5132 7.81445Z" stroke="#525866" stroke-width="1.5" stroke-linecap="round" stroke-linejoin="round"/>
<path d="M4.48661 15.328C3.45353 15.328 2.60828 14.4828 2.60828 13.4497V4.05802C2.60828 3.02494 3.45353 2.17969 4.48661 2.17969H13.8783C14.9114 2.17969 15.7566 3.02494 15.7566 4.05802" stroke="#525866" stroke-width="1.5" stroke-linecap="round" stroke-linejoin="round"/>
</svg>
