<svg width="24" height="23" viewBox="0 0 24 23" fill="none" xmlns="http://www.w3.org/2000/svg">
<path d="M17.8081 19.0989C17.8081 17.6044 17.2144 16.1711 16.1576 15.1143C15.1009 14.0576 13.6676 13.4639 12.1731 13.4639C10.6786 13.4639 9.24531 14.0576 8.18854 15.1143C7.13177 16.1711 6.53809 17.6044 6.53809 19.0989" stroke="#EF6924" stroke-width="1.5" stroke-linecap="round" stroke-linejoin="round"/>
<path d="M12.173 13.4635C14.2478 13.4635 15.9297 11.7816 15.9297 9.70686C15.9297 7.63211 14.2478 5.9502 12.173 5.9502C10.0983 5.9502 8.41638 7.63211 8.41638 9.70686C8.41638 11.7816 10.0983 13.4635 12.173 13.4635Z" stroke="#EF6924" stroke-width="1.5" stroke-linecap="round" stroke-linejoin="round"/>
<path d="M12.173 20.9772C17.3599 20.9772 21.5647 16.7724 21.5647 11.5855C21.5647 6.39864 17.3599 2.19385 12.173 2.19385C6.98616 2.19385 2.78137 6.39864 2.78137 11.5855C2.78137 16.7724 6.98616 20.9772 12.173 20.9772Z" stroke="#EF6924" stroke-width="1.5" stroke-linecap="round" stroke-linejoin="round"/>
</svg>
