<svg width="23" height="23" viewBox="0 0 23 23" fill="none" xmlns="http://www.w3.org/2000/svg">
<path d="M17.1349 19.0686C17.1349 17.5741 16.5412 16.1408 15.4844 15.084C14.4276 14.0273 12.9944 13.4336 11.4999 13.4336C10.0054 13.4336 8.57209 14.0273 7.51532 15.084C6.45855 16.1408 5.86487 17.5741 5.86487 19.0686" stroke="#525866" stroke-width="1.5" stroke-linecap="round" stroke-linejoin="round"/>
<path d="M11.4999 13.4333C13.5746 13.4333 15.2566 11.7513 15.2566 9.67659C15.2566 7.60184 13.5746 5.91992 11.4999 5.91992C9.42514 5.91992 7.74323 7.60184 7.74323 9.67659C7.74323 11.7513 9.42514 13.4333 11.4999 13.4333Z" stroke="#525866" stroke-width="1.5" stroke-linecap="round" stroke-linejoin="round"/>
<path d="M11.4999 20.9474C16.6868 20.9474 20.8916 16.7426 20.8916 11.5557C20.8916 6.36885 16.6868 2.16406 11.4999 2.16406C6.31307 2.16406 2.10828 6.36885 2.10828 11.5557C2.10828 16.7426 6.31307 20.9474 11.4999 20.9474Z" stroke="#525866" stroke-width="1.5" stroke-linecap="round" stroke-linejoin="round"/>
</svg>
